/* XPM */
static char *CSBwin.xpm[] = {
/* columns rows colors chars-per-pixel */
"32 32 2 1",
"  c black",
". c gray100",
/* pixels */
"................................",
"................................",
"................................",
"................................",
"...........................  ...",
"..........................  ....",
".........................  .....",
"........................  ......",
"......................   .......",
".....................   ........",
"....................    ........",
"..................     .........",
".................     ..........",
"................     ...........",
"...............     ............",
"..............     .............",
".............     ..............",
"............     ...............",
"...  ......     ................",
"....  ....     .................",
"....          ..................",
".....        ...................",
"......      ....................",
"......      ....................",
".....       ....................",
"....        ....................",
"...     ..   ...................",
"..     ....   ..................",
".     ....... ..................",
"..   ...........................",
"... ............................",
"................................"
};
